<mxfile host="app.diagrams.net" modified="2024-05-16T05:56:35.624Z" agent="Mozilla/5.0 (Windows NT 10.0; Win64; x64) AppleWebKit/537.36 (KHTML, like Gecko) Chrome/123.0.0.0 Safari/537.36" version="24.4.2" etag="UdxF6gWEQCnhmoLVJzvy" type="github">
  <diagram name="Page-1" id="Dw89NSoye0CF7XhgD2Az">
    <mxGraphModel>
      <root>
        <mxCell id="0" />
        <mxCell id="1" parent="0" />
      </root>
    </mxGraphModel>
  </diagram>
</mxfile>
